<?xml version="1.0" encoding="UTF-8"?>
<svg id="Layer_1" xmlns="http://www.w3.org/2000/svg" xmlns:xlink="http://www.w3.org/1999/xlink" version="1.1" viewBox="0 0 1600 600">
  <!-- Generator: Adobe Illustrator 29.8.2, SVG Export Plug-In . SVG Version: 2.1.1 Build 3)  -->
  <defs>
    <style>
      .st0, .st1, .st2, .st3, .st4, .st5, .st6, .st7, .st8, .st9, .st10, .st11 {
        isolation: isolate;
      }

      .st0, .st1, .st2, .st5, .st7, .st10, .st11 {
        font-family: ArialMT, Arial;
      }

      .st0, .st6 {
        font-size: 14px;
      }

      .st0, .st10 {
        fill: #666;
      }

      .st12 {
        fill: #444;
      }

      .st1, .st13, .st2, .st3, .st14, .st15, .st4, .st5, .st16, .st7, .st17, .st11 {
        fill: #fff;
      }

      .st1, .st10 {
        font-size: 12px;
      }

      .st18 {
        stroke: #4a90e2;
      }

      .st18, .st19, .st20, .st21, .st22, .st23, .st24, .st25, .st13, .st26, .st14, .st27, .st28 {
        stroke-width: 2px;
      }

      .st18, .st29 {
        fill: none;
      }

      .st30 {
        fill: #1b1464;
      }

      .st19 {
        fill: url(#linear-gradient6);
      }

      .st19, .st20, .st21, .st22, .st23, .st24, .st25, .st13, .st27, .st28 {
        stroke: #2a3556;
      }

      .st20 {
        fill: url(#linear-gradient4);
      }

      .st21 {
        fill: url(#linear-gradient3);
      }

      .st22 {
        fill: url(#linear-gradient5);
      }

      .st23 {
        fill: url(#linear-gradient7);
      }

      .st24 {
        fill: url(#linear-gradient1);
      }

      .st25 {
        fill: url(#linear-gradient2);
      }

      .st13, .st15 {
        opacity: .1;
      }

      .st2, .st4, .st9 {
        font-size: 16px;
      }

      .st3 {
        font-size: 13.29px;
      }

      .st3, .st4, .st6, .st8, .st9 {
        font-family: Arial-BoldMT, Arial;
        font-weight: 700;
      }

      .st26, .st29 {
        stroke: #3d4b7d;
      }

      .st26, .st31 {
        fill: #1a2438;
      }

      .st14, .st16, .st32 {
        stroke: #ddd;
      }

      .st29 {
        stroke-dasharray: 8 5;
        stroke-width: 3px;
      }

      .st5 {
        font-size: 20px;
      }

      .st6, .st9 {
        fill: #333;
      }

      .st7 {
        font-size: 17.95px;
      }

      .st33 {
        fill: #4a90e2;
      }

      .st34 {
        fill: #0a0a60;
      }

      .st27, .st35, .st8 {
        fill: #3d4b7d;
      }

      .st28 {
        fill: url(#linear-gradient);
      }

      .st8 {
        font-size: 15px;
      }

      .st32 {
        fill: #f5f5f5;
      }

      .st11 {
        font-size: 13px;
      }
    </style>
    <linearGradient id="linear-gradient" x1="52.48" y1="103.73" x2="332.48" y2="103.73" gradientUnits="userSpaceOnUse">
      <stop offset="0" stop-color="#336"/>
      <stop offset="1" stop-color="#000"/>
    </linearGradient>
    <linearGradient id="linear-gradient1" x1="350.17" y1="437.97" x2="612.98" y2="437.97" gradientUnits="userSpaceOnUse">
      <stop offset="0" stop-color="#336"/>
      <stop offset="1" stop-color="#000"/>
    </linearGradient>
    <linearGradient id="linear-gradient2" x1="622.09" y1="314.43" x2="672.09" y2="314.43" gradientUnits="userSpaceOnUse">
      <stop offset="0" stop-color="#3d4b7d"/>
      <stop offset="1" stop-color="#000"/>
    </linearGradient>
    <linearGradient id="linear-gradient3" x1="1095.48" y1="101.96" x2="1328.58" y2="101.96" gradientUnits="userSpaceOnUse">
      <stop offset="0" stop-color="#336"/>
      <stop offset="1" stop-color="#000"/>
    </linearGradient>
    <linearGradient id="linear-gradient4" x1="1362.48" y1="299.45" x2="1387.48" y2="299.45" gradientUnits="userSpaceOnUse">
      <stop offset="0" stop-color="#336"/>
      <stop offset="1" stop-color="#000"/>
    </linearGradient>
    <linearGradient id="linear-gradient5" x1="1392.48" y1="294.45" x2="1417.48" y2="294.45" gradientUnits="userSpaceOnUse">
      <stop offset="0" stop-color="#336"/>
      <stop offset="1" stop-color="#000"/>
    </linearGradient>
    <linearGradient id="linear-gradient6" x1="1434.98" y1="311.95" x2="1434.98" y2="261.95" gradientUnits="userSpaceOnUse">
      <stop offset="0" stop-color="#336"/>
      <stop offset="1" stop-color="#000"/>
    </linearGradient>
    <linearGradient id="linear-gradient7" x1="1464.98" y1="311.95" x2="1464.98" y2="246.95" gradientUnits="userSpaceOnUse">
      <stop offset="0" stop-color="#336"/>
      <stop offset="1" stop-color="#000"/>
    </linearGradient>
  </defs>
  <g id="step1">
    <rect class="st28" x="52.48" y="78.27" width="280" height="50.92" rx="15" ry="15"/>
    <circle class="st31" cx="82.48" cy="102.95" r="18"/>
    <text class="st4" transform="translate(77.48 108.95)"><tspan x="0" y="0">1</tspan></text>
    <text class="st5" transform="translate(128.19 109.95)"><tspan x="0" y="0">Your training Data</tspan></text>
    <rect class="st16" x="72.48" y="162.95" width="280" height="200" rx="10" ry="10"/>
    <rect class="st32" x="87.48" y="177.95" width="250" height="40" rx="5" ry="5"/>
    <text class="st0" transform="translate(102.48 202.95)"><tspan x="0" y="0">yourwebsite.com</tspan></text>
    <rect class="st30" x="102.48" y="232.95" width="75.94" height="35" rx="8" ry="8"/>
    <text class="st11" transform="translate(126.57 253.92)"><tspan x="0" y="0">URL</tspan></text>
    <rect class="st30" x="102.48" y="277.95" width="75.94" height="35" rx="8" ry="8"/>
    <text class="st11" transform="translate(126.28 298.92)"><tspan x="0" y="0">PDF</tspan></text>
    <rect class="st30" x="102.48" y="322.95" width="74.64" height="30" rx="6" ry="6"/>
    <text class="st1" transform="translate(122.82 342.95)"><tspan x="0" y="0">JSON</tspan></text>
    <text class="st1" transform="translate(217.48 342.95)"><tspan x="0" y="0">PUT /items</tspan></text>
  </g>
  <path class="st29" d="M135.29,365.67l-.53,74.34"/>
  <circle class="st35" cx="342.48" cy="437.95" r="5"/>
  <g id="step2">
    <rect class="st24" x="350.17" y="412.72" width="262.81" height="50.5" rx="15" ry="15"/>
    <circle class="st31" cx="385.17" cy="437.95" r="18"/>
    <text class="st4" transform="translate(380.17 443.95)"><tspan x="0" y="0">2</tspan></text>
    <text class="st5" transform="translate(424.57 444.95)"><tspan x="0" y="0">Crawl your data</tspan></text>
  </g>
  <g id="ai-assistant">
    <rect class="st26" x="653.48" y="52.95" width="360" height="333.17" rx="15" ry="15"/>
    <ellipse class="st17" cx="684.71" cy="83.73" rx="16.23" ry="15.53"/>
    <text class="st2" transform="translate(713.48 89.95)"><tspan x="0" y="0">AI Assistant</tspan></text>
    <circle class="st12" cx="988.48" cy="82.95" r="12"/>
    <text class="st2" transform="translate(983.48 87.95)"><tspan x="0" y="0">X</tspan></text>
    <rect class="st13" x="673.48" y="122.95" width="222.26" height="60" rx="10" ry="10"/>
    <text class="st11" transform="translate(688.48 147.95)"><tspan x="0" y="0">Hi, I’m Zaakiy, the AI assistant for...</tspan></text>
    <text class="st11" transform="translate(688.48 165.95)"><tspan x="0" y="0">how can I help you today?</tspan></text>
    <rect class="st16" x="612.09" y="279.43" width="310" height="87.05" rx="10" ry="10"/>
    <rect class="st25" x="622.09" y="289.43" width="50" height="50" rx="5" ry="5"/>
    <text class="st8" transform="translate(689.34 302.87)"><tspan x="0" y="0">AI Data Harmonizer</tspan></text>
    <text class="st10" transform="translate(689.53 324.93)"><tspan x="0" y="0">Certainly! Data extracted.</tspan></text>
    <text class="st10" transform="translate(690.13 339.43)"><tspan x="0" y="0">Found 20 records</tspan></text>
    <rect class="st15" x="767.09" y="207.67" width="290" height="40" rx="8" ry="8"/>
    <text class="st1" transform="translate(783.73 230.95)"><tspan x="0" y="0">Hi, I would like to the best selling ...</tspan></text>
  </g>
  <path class="st29" d="M525.06,407.59l.84-91.39"/>
  <circle class="st35" cx="583.48" cy="422.95" r="5"/>
  <path class="st29" d="M1033.76,325.45h22.72-22.72Z"/>
  <circle class="st35" cx="1030.76" cy="325.45" r="5"/>
  <circle class="st35" cx="1078.58" cy="102.95" r="5"/>
  <path class="st29" d="M1053.48,102.95v223.55"/>
  <g id="step4">
    <rect class="st21" x="1095.48" y="76.49" width="233.1" height="50.94" rx="15" ry="15"/>
    <ellipse class="st31" cx="1131.76" cy="101.25" rx="15.77" ry="13.58"/>
    <text class="st3" transform="translate(1124.48 105.58) scale(1.88 1)"><tspan x="0" y="0">3</tspan></text>
    <text class="st7" transform="translate(1168.18 109.01) scale(1.04 1)"><tspan x="0" y="0">Send Insights </tspan></text>
  </g>
  <g id="dashboard">
    <rect class="st14" x="1112.48" y="161.95" width="400" height="300" rx="10" ry="10"/>
    <circle class="st27" cx="1142.48" cy="191.95" r="18"/>
    <text class="st9" transform="translate(1172.48 198.95)"><tspan x="0" y="0">Zaakiy Dashboard</tspan></text>
    <text class="st6" transform="translate(1132.48 236.95)"><tspan x="0" y="0">Weekly User Growth</tspan></text>
    <polyline class="st18" points="1142.48 301.95 1162.48 291.95 1182.48 286.95 1202.48 281.95 1222.48 296.95 1242.48 276.95 1262.48 266.95 1282.48 256.95"/>
    <circle class="st33" cx="1282.48" cy="256.95" r="4"/>
    <rect class="st20" x="1362.48" y="286.95" width="25" height="25"/>
    <rect class="st22" x="1392.48" y="276.95" width="25" height="35"/>
    <rect class="st19" x="1422.48" y="261.95" width="25" height="50"/>
    <rect class="st23" x="1452.48" y="246.95" width="25" height="65"/>
  </g>
  <path class="st29" d="M140.03,437.95h197.45"/>
  <circle class="st35" cx="612.98" cy="315.86" r="5"/>
  <path class="st29" d="M525.48,316.53l79.93-.67"/>
  <g>
    <path class="st34" d="M674.54,83.25c-1.24-1.23-1.33-3.12-.61-4.6,1.5-2.96,5.5-4.83,9.1-5.11,5.01-.4,9.96,2.62,10.23,7.2.21,2.66-1.64,5.18-4.19,6.52-2.29,1.24-7.09,2.66-8.48-.26-.82-2.05,1.68-3.33,3.7-3.38.79-.02,1.58.11,2.31.37,2.01.71,3.61,2.28,4.13,4.13.58,2.19-1.04,4.38-3.28,5.24-1.74.74-4.86,1.13-5.57-.95-.4-1.56,1.12-2.84,2.82-2.86,1.47-.09,2.85.62,4,1.25.77.42,1.53.82,2.36,1.06,1.65.47,3.63.02,4.88-1.14-1.13,1.29-3.17,1.9-5,1.52-1.78-.36-3.24-1.51-4.96-1.86-1.14-.23-2.5-.05-2.99.93-.48,1.02.4,1.67,1.56,1.62.79-.02,1.63-.26,2.34-.57,3.42-1.6,3.22-4.79.19-6.63-.97-.57-2.13-.89-3.27-.68-.83.14-2.06.66-1.71,1.46.64,1.2,2.58.75,3.84.46,4.14-1.05,7.1-4.52,5.32-8.27-1.26-2.78-4.82-4.38-8.17-4.24-3.31.12-7.15,1.7-8.75,4.34-.8,1.36-.85,3.14.2,4.43h0Z"/>
    <path class="st34" d="M687.2,78.55c-1.2.17-2.5.2-3.42.92,0,0-.02.02-.03.02.14-.12.05-.36-.16-.38,1.03-.08,2.49.46,2.97,1.48-.89-.59-1.86-.86-2.94-.78-.48.06-.8-.46-.49-.78,1.03-.94,2.78-.91,4.07-.48h0Z"/>
    <circle class="st34" cx="679.64" cy="79.82" r=".86"/>
  </g>
  <path class="st29" d="M1051.98,102.95h23.21-23.21Z"/>
</svg>