<svg width="695" height="723" viewBox="0 0 695 723" fill="none" xmlns="http://www.w3.org/2000/svg">
<path d="M33.33 344.54C-4.84996 300.94 -7.72997 234.47 14.56 182.19C60.97 77.68 184.38 11.68 295.42 1.78998C450.17 -12.2 602.78 94.35 611.14 256.15C617.65 350.05 560.54 439.07 481.79 486.34C410.96 530.01 263.08 580.14 220.18 477.05C194.92 404.72 271.91 359.37 334.45 357.53C358.8 356.85 383.32 361.58 405.85 370.7C467.81 395.87 517.37 451.28 533.21 516.6C551.12 593.83 501.13 671.36 431.85 701.86C378.2 728.05 281.91 741.8 260.05 668.34C247.8 613.39 294.56 568.19 347.04 567.36C392.37 564.35 434.9 589.15 470.61 611.54C494.39 626.28 517.84 640.66 543.47 648.88C594.37 665.31 655.51 649.7 694.09 608.78C659.08 654.3 596.13 676.05 539.77 662.32C484.86 649.53 439.92 608.98 386.54 596.76C351.45 588.69 309.28 594.95 294.37 629.54C279.4 665.6 306.72 688.55 342.43 686.62C366.7 686.06 392.65 677.61 414.57 666.61C520.13 609.99 513.97 497.37 420.4 432.55C390.33 412.48 354.53 401.08 319.54 408.46C293.9 413.27 255.81 431.88 266.86 459.89C286.71 502.33 346.57 486.34 385.25 476.28C513.08 439.16 604.35 316.69 549.47 184.14C510.69 85.94 400.68 29.29 297.37 34.54C195.18 38.8 76.73 94.76 27.14 188.01C2.42004 236.21 0.800045 298.94 33.32 344.55L33.33 344.54Z" fill="white"/>
<path d="M424.09 178.65C387.16 184.81 346.97 185.79 318.5 211.09C318.34 211.22 317.82 211.68 317.66 211.81C321.88 207.66 319.08 198.99 312.66 198.4C344.41 195.66 389.64 214.5 404.21 250.76C376.61 229.81 346.71 220.3 313.53 223.12C298.81 225.19 288.91 206.88 298.42 195.74C330.13 162.54 384.08 163.57 424.08 178.65H424.09Z" fill="white"/>
<path d="M190.78 253.96C205.438 253.96 217.32 240.358 217.32 223.58C217.32 206.802 205.438 193.2 190.78 193.2C176.123 193.2 164.24 206.802 164.24 223.58C164.24 240.358 176.123 253.96 190.78 253.96Z" fill="white"/>
</svg>
