<?xml version="1.0" encoding="UTF-8"?>
<svg id="Layer_1" xmlns="http://www.w3.org/2000/svg" xmlns:xlink="http://www.w3.org/1999/xlink" version="1.1" viewBox="0 0 1600 600">
  <!-- Generator: Adobe Illustrator 29.8.2, SVG Export Plug-In . SVG Version: 2.1.1 Build 3)  -->
  <defs>
    <style>
      .st0, .st1, .st2, .st3, .st4, .st5, .st6, .st7, .st8, .st9, .st10, .st11, .st12 {
        isolation: isolate;
      }

      .st0, .st1, .st2, .st6, .st10, .st11 {
        font-family: ArialMT, Arial;
      }

      .st0, .st7 {
        font-size: 14px;
      }

      .st0, .st10 {
        fill: #666;
      }

      .st13 {
        fill: #444;
      }

      .st1, .st2, .st3, .st14, .st5, .st6, .st15, .st16, .st11, .st12 {
        fill: #fff;
      }

      .st1, .st10 {
        font-size: 12px;
      }

      .st17 {
        stroke: #4a90e2;
      }

      .st17, .st18, .st19, .st20 {
        fill: none;
      }

      .st17, .st21, .st22, .st23, .st24, .st25, .st26, .st3, .st14, .st27, .st28, .st29 {
        stroke-width: 2px;
      }

      .st30 {
        fill: #1b1464;
      }

      .st18 {
        stroke: #00d4ff;
      }

      .st21 {
        fill: url(#linear-gradient6);
      }

      .st21, .st22, .st23, .st24, .st25, .st26, .st3, .st27, .st28 {
        stroke: #2a3556;
      }

      .st22 {
        fill: url(#linear-gradient4);
      }

      .st23 {
        fill: url(#linear-gradient3);
      }

      .st24 {
        fill: url(#linear-gradient5);
      }

      .st25 {
        fill: url(#linear-gradient7);
      }

      .st26 {
        fill: url(#linear-gradient1);
      }

      .st2, .st5, .st9 {
        font-size: 16px;
      }

      .st3, .st12 {
        opacity: .1;
      }

      .st19 {
        stroke: #6c63ff;
      }

      .st31 {
        fill: url(#radial-gradient);
      }

      .st14, .st15, .st32 {
        stroke: #ddd;
      }

      .st20 {
        stroke-dasharray: 8 5;
        stroke-width: 3px;
      }

      .st20, .st29 {
        stroke: #3d4b7d;
      }

      .st5, .st7, .st8, .st9 {
        font-family: Arial-BoldMT, Arial;
        font-weight: 700;
      }

      .st6 {
        font-size: 20px;
      }

      .st7, .st9 {
        fill: #333;
      }

      .st33 {
        fill: #4a90e2;
      }

      .st34 {
        fill: #0a0a60;
      }

      .st27, .st35, .st8 {
        fill: #3d4b7d;
      }

      .st36 {
        opacity: .08;
      }

      .st28 {
        fill: url(#linear-gradient);
      }

      .st37 {
        fill: url(#radial-gradient1);
      }

      .st8 {
        font-size: 15px;
      }

      .st32 {
        fill: #f5f5f5;
      }

      .st38 {
        fill: #6c63ff;
      }

      .st39 {
        fill: #1a2438;
      }

      .st11 {
        font-size: 13px;
      }

      .st29 {
        fill: url(#linear-gradient2);
      }
    </style>
    <radialGradient id="radial-gradient" cx="432.03" cy="850.75" fx="432.03" fy="850.75" r=".4" gradientTransform="translate(-690774.12 510692.59) scale(1600 -600)" gradientUnits="userSpaceOnUse">
      <stop offset=".2" stop-color="#5b4dff" stop-opacity=".15"/>
      <stop offset=".33" stop-color="#493edc" stop-opacity=".12"/>
      <stop offset=".74" stop-color="#1a1881" stop-opacity=".03"/>
      <stop offset="1" stop-color="#0a0a60" stop-opacity="0"/>
    </radialGradient>
    <radialGradient id="radial-gradient1" cx="432.43" cy="850.99" fx="432.43" fy="850.99" r=".27" gradientTransform="translate(-690768 638674.16) scale(1600 -750.09)" gradientUnits="userSpaceOnUse">
      <stop offset="0" stop-color="#9296cb" stop-opacity=".12"/>
      <stop offset="1" stop-color="#00f0ff" stop-opacity="0"/>
    </radialGradient>
    <linearGradient id="linear-gradient" x1="54.18" y1="107.71" x2="334.18" y2="107.71" gradientUnits="userSpaceOnUse">
      <stop offset="0" stop-color="#3d4b7d"/>
      <stop offset="1" stop-color="#000"/>
    </linearGradient>
    <linearGradient id="linear-gradient1" x1="351.87" y1="448.53" x2="614.68" y2="448.53" gradientUnits="userSpaceOnUse">
      <stop offset="0" stop-color="#3d4b7d"/>
      <stop offset="1" stop-color="#000"/>
    </linearGradient>
    <linearGradient id="linear-gradient2" x1="655.18" y1="228.91" x2="1015.18" y2="228.91" gradientUnits="userSpaceOnUse">
      <stop offset="0" stop-color="#1a2438"/>
      <stop offset="1" stop-color="#000"/>
    </linearGradient>
    <linearGradient id="linear-gradient3" x1="1095.18" y1="107.71" x2="1342.2" y2="107.71" gradientUnits="userSpaceOnUse">
      <stop offset="0" stop-color="#3d4b7d"/>
      <stop offset="1" stop-color="#000"/>
    </linearGradient>
    <linearGradient id="linear-gradient4" x1="1377.68" y1="332.32" x2="1377.68" y2="307.32" gradientUnits="userSpaceOnUse">
      <stop offset="0" stop-color="#3d4b7d"/>
      <stop offset="1" stop-color="#000"/>
    </linearGradient>
    <linearGradient id="linear-gradient5" x1="1407.68" y1="332.32" x2="1407.68" y2="297.32" gradientUnits="userSpaceOnUse">
      <stop offset="0" stop-color="#3d4b7d"/>
      <stop offset="1" stop-color="#000"/>
    </linearGradient>
    <linearGradient id="linear-gradient6" x1="1437.68" y1="332.32" x2="1437.68" y2="282.32" gradientUnits="userSpaceOnUse">
      <stop offset="0" stop-color="#3d4b7d"/>
      <stop offset="1" stop-color="#000"/>
    </linearGradient>
    <linearGradient id="linear-gradient7" x1="1467.68" y1="332.32" x2="1467.68" y2="267.32" gradientUnits="userSpaceOnUse">
      <stop offset="0" stop-color="#3d4b7d"/>
      <stop offset="1" stop-color="#000"/>
    </linearGradient>
  </defs>
  <rect class="st31" width="1600" height="600"/>
  <rect class="st37" x="-3.6" y="-1.68" width="1600" height="600"/>
  <g class="st36">
    <line class="st18" x1="401.7" y1="11.09" x2="401.7" y2="611.09"/>
    <line class="st19" x1="801.7" y1="11.09" x2="801.7" y2="611.09"/>
    <line class="st18" x1="1201.7" y1="11.09" x2="1201.7" y2="611.09"/>
    <line class="st19" x1="1.7" y1="211.09" x2="1601.7" y2="211.09"/>
    <line class="st18" x1="1.7" y1="411.09" x2="1601.7" y2="411.09"/>
  </g>
  <circle class="st38" cx="951.7" cy="311.09" r="5"/>
  <g id="step1">
    <rect class="st28" x="54.18" y="80.32" width="280" height="54.77" rx="15" ry="15"/>
    <circle class="st39" cx="84.18" cy="108.32" r="18"/>
    <g class="st4">
      <text class="st5" transform="translate(79.18 114.32)"><tspan x="0" y="0">1</tspan></text>
    </g>
    <g class="st4">
      <text class="st6" transform="translate(129.3 115.09)"><tspan x="0" y="0">Your training Data</tspan></text>
    </g>
    <rect class="st15" x="74.18" y="172.32" width="280" height="200" rx="10" ry="10"/>
    <rect class="st32" x="89.18" y="187.32" width="250" height="40" rx="5" ry="5"/>
    <g class="st4">
      <text class="st0" transform="translate(104.18 212.32)"><tspan x="0" y="0">yourwebsite.com</tspan></text>
    </g>
    <rect class="st30" x="104.18" y="242.32" width="75.94" height="35" rx="8" ry="8"/>
    <g class="st4">
      <text class="st11" transform="translate(128.27 263.29)"><tspan x="0" y="0">URL</tspan></text>
    </g>
    <rect class="st30" x="104.18" y="287.32" width="75.94" height="35" rx="8" ry="8"/>
    <g class="st4">
      <text class="st11" transform="translate(127.98 308.29)"><tspan x="0" y="0">PDF</tspan></text>
    </g>
    <rect class="st30" x="104.18" y="332.32" width="74.64" height="30" rx="6" ry="6"/>
    <g class="st4">
      <text class="st1" transform="translate(124.52 352.32)"><tspan x="0" y="0">JSON</tspan></text>
    </g>
    <g class="st4">
      <text class="st1" transform="translate(219.18 352.32)"><tspan x="0" y="0">PUT /items</tspan></text>
    </g>
  </g>
  <path class="st20" d="M136.99,375.04l-.53,74.34"/>
  <circle class="st35" cx="344.18" cy="447.32" r="5"/>
  <g id="step2">
    <rect class="st26" x="351.87" y="421.09" width="262.81" height="54.88" rx="15" ry="15"/>
    <circle class="st39" cx="386.87" cy="447.32" r="18"/>
    <g class="st4">
      <text class="st5" transform="translate(381.87 453.32)"><tspan x="0" y="0">2</tspan></text>
    </g>
    <g class="st4">
      <text class="st6" transform="translate(426.27 454.32)"><tspan x="0" y="0">Crawl your data</tspan></text>
    </g>
  </g>
  <g id="ai-assistant">
    <rect class="st29" x="655.18" y="62.32" width="360" height="333.17" rx="15" ry="15"/>
    <circle class="st16" cx="685.18" cy="92.32" r="20"/>
    <g class="st4">
      <text class="st2" transform="translate(715.18 99.32)"><tspan x="0" y="0">AI Assistant</tspan></text>
    </g>
    <circle class="st13" cx="990.18" cy="92.32" r="12"/>
    <g class="st4">
      <text class="st2" transform="translate(985.18 97.32)"><tspan x="0" y="0">X</tspan></text>
    </g>
    <rect class="st3" x="675.18" y="132.32" width="222.26" height="60" rx="10" ry="10"/>
    <g class="st4">
      <text class="st11" transform="translate(690.18 157.32)"><tspan x="0" y="0">Hi, I’m Zaakiy, the AI assistant for...</tspan></text>
    </g>
    <g class="st4">
      <text class="st11" transform="translate(690.18 175.32)"><tspan x="0" y="0">how can I help you today?</tspan></text>
    </g>
    <rect class="st15" x="613.79" y="288.8" width="310" height="87.05" rx="10" ry="10"/>
    <rect class="st27" x="623.79" y="298.8" width="50" height="50" rx="5" ry="5"/>
    <g class="st4">
      <text class="st8" transform="translate(691.04 312.24)"><tspan x="0" y="0">AI Data Harmonizer</tspan></text>
    </g>
    <g class="st4">
      <text class="st10" transform="translate(691.23 334.3)"><tspan x="0" y="0">Certainly! Data extracted.</tspan></text>
    </g>
    <g class="st4">
      <text class="st10" transform="translate(691.83 348.8)"><tspan x="0" y="0">Found 20 records</tspan></text>
    </g>
    <rect class="st12" x="768.79" y="217.04" width="290" height="40" rx="8" ry="8"/>
    <g class="st4">
      <text class="st1" transform="translate(785.43 240.32)"><tspan x="0" y="0">Hi, I would like to the best selling ...</tspan></text>
    </g>
  </g>
  <path class="st20" d="M526.76,416.96l.84-91.39"/>
  <path class="st20" d="M1035.46,334.82h22.72-22.72Z"/>
  <circle class="st35" cx="1032.46" cy="334.82" r="5"/>
  <circle class="st35" cx="1080.28" cy="112.32" r="5"/>
  <path class="st20" d="M1055.18,112.32v223.55"/>
  <g id="step4">
    <rect class="st23" x="1095.18" y="80.32" width="247.02" height="54.77" rx="15" ry="15"/>
    <circle class="st39" cx="1135.18" cy="110.32" r="18"/>
    <g class="st4">
      <text class="st5" transform="translate(1127.18 117.32) scale(1.51 1)"><tspan x="0" y="0">4</tspan></text>
    </g>
    <g class="st4">
      <text class="st6" transform="translate(1173.18 116.32)"><tspan x="0" y="0">Send Insights</tspan></text>
    </g>
  </g>
  <g id="dashboard">
    <rect class="st14" x="1115.18" y="182.32" width="400" height="213.17" rx="10" ry="10"/>
    <circle class="st27" cx="1145.18" cy="212.32" r="18"/>
    <g class="st4">
      <text class="st9" transform="translate(1175.18 219.32)"><tspan x="0" y="0">Reporting Dashboard</tspan></text>
    </g>
    <g class="st4">
      <text class="st7" transform="translate(1135.18 257.32)"><tspan x="0" y="0">Weekly User Growth</tspan></text>
    </g>
    <polyline class="st17" points="1145.18 322.32 1165.18 312.32 1185.18 307.32 1205.18 302.32 1225.18 317.32 1245.18 297.32 1265.18 287.32 1285.18 277.32"/>
    <circle class="st33" cx="1285.18" cy="277.32" r="4"/>
    <rect class="st22" x="1365.18" y="307.32" width="25" height="25"/>
    <rect class="st24" x="1395.18" y="297.32" width="25" height="35"/>
    <rect class="st21" x="1425.18" y="282.32" width="25" height="50"/>
    <rect class="st25" x="1455.18" y="267.32" width="25" height="65"/>
  </g>
  <circle class="st35" cx="1105.18" cy="272.32" r="5"/>
  <path class="st20" d="M141.73,447.32h197.45"/>
  <circle class="st35" cx="614.68" cy="325.23" r="5"/>
  <path class="st20" d="M527.18,325.9l79.93-.67"/>
  <g>
    <path class="st34" d="M676.24,92.67c-1.24-1.23-1.33-3.12-.61-4.6,1.5-2.96,5.5-4.83,9.1-5.11,5.01-.4,9.96,2.62,10.23,7.2.21,2.66-1.64,5.18-4.19,6.52-2.29,1.24-7.09,2.66-8.48-.26-.82-2.05,1.68-3.33,3.7-3.38.79-.02,1.58.11,2.31.37,2.01.71,3.61,2.28,4.13,4.13.58,2.19-1.04,4.38-3.28,5.24-1.74.74-4.86,1.13-5.57-.95-.4-1.56,1.12-2.84,2.82-2.86,1.47-.09,2.85.62,4,1.25.77.42,1.53.82,2.36,1.06,1.65.47,3.63.02,4.88-1.14-1.13,1.29-3.17,1.9-5,1.52-1.78-.36-3.24-1.51-4.96-1.86-1.14-.23-2.5-.05-2.99.93-.48,1.02.4,1.67,1.56,1.62.79-.02,1.63-.26,2.34-.57,3.42-1.6,3.22-4.79.19-6.63-.97-.57-2.13-.89-3.27-.68-.83.14-2.06.66-1.71,1.46.64,1.2,2.58.75,3.84.46,4.14-1.05,7.1-4.52,5.32-8.27-1.26-2.78-4.82-4.38-8.17-4.24-3.31.12-7.15,1.7-8.75,4.34-.8,1.36-.85,3.14.2,4.43h0v.02Z"/>
    <path class="st34" d="M688.9,87.97c-1.2.17-2.5.2-3.42.92,0,0-.02.02-.03.02.14-.12.05-.36-.16-.38,1.03-.08,2.49.46,2.97,1.48-.89-.59-1.86-.86-2.94-.78-.48.06-.8-.46-.49-.78,1.03-.94,2.78-.91,4.07-.48h0Z"/>
    <circle class="st34" cx="681.34" cy="89.24" r=".86"/>
  </g>
  <path class="st20" d="M1053.68,112.32h23.21-23.21Z"/>
</svg>