<?xml version="1.0" encoding="UTF-8"?>
<svg id="Layer_1" xmlns="http://www.w3.org/2000/svg" xmlns:xlink="http://www.w3.org/1999/xlink" version="1.1" viewBox="0 0 1600 600">
  <!-- Generator: Adobe Illustrator 29.8.2, SVG Export Plug-In . SVG Version: 2.1.1 Build 3)  -->
  <defs>
    <style>
      .st0, .st1, .st2, .st3, .st4, .st5, .st6, .st7, .st8, .st9, .st10, .st11, .st12 {
        isolation: isolate;
      }

      .st0, .st1, .st2, .st5, .st10, .st11 {
        font-family: ArialMT, Arial;
      }

      .st0, .st6 {
        font-size: 14px;
      }

      .st0, .st10 {
        fill: #666;
      }

      .st13 {
        fill: #444;
      }

      .st1, .st2, .st3, .st14, .st5, .st15, .st16, .st11, .st12 {
        fill: #fff;
      }

      .st1, .st10 {
        font-size: 12px;
      }

      .st17 {
        stroke: #4a90e2;
      }

      .st17, .st18, .st19, .st20 {
        fill: none;
      }

      .st17, .st21, .st22, .st23, .st24, .st3, .st25, .st14, .st26 {
        stroke-width: 2px;
      }

      .st27 {
        fill: #1b1464;
      }

      .st18 {
        stroke: #00d4ff;
      }

      .st21 {
        fill: url(#linear-gradient4);
      }

      .st21, .st22, .st23, .st24, .st3, .st26 {
        stroke: #2a3556;
      }

      .st22 {
        fill: url(#linear-gradient3);
      }

      .st23 {
        fill: url(#linear-gradient1);
      }

      .st24 {
        fill: url(#linear-gradient2);
      }

      .st2, .st8, .st9 {
        font-size: 16px;
      }

      .st3, .st12 {
        opacity: .1;
      }

      .st19 {
        stroke: #6c63ff;
      }

      .st25 {
        fill: url(#linear-gradient);
      }

      .st25, .st20 {
        stroke: #3d4b7d;
      }

      .st14, .st15, .st28 {
        stroke: #ddd;
      }

      .st20 {
        stroke-dasharray: 8 5;
        stroke-width: 3px;
      }

      .st5 {
        font-size: 20px;
      }

      .st6, .st7, .st8, .st9 {
        font-family: Arial-BoldMT, Arial;
        font-weight: 700;
      }

      .st6, .st9 {
        fill: #333;
      }

      .st29 {
        fill: #4a90e2;
      }

      .st30 {
        fill: #0a0a60;
      }

      .st26, .st31, .st7 {
        fill: #3d4b7d;
      }

      .st32 {
        fill: #f1f5f9;
      }

      .st33 {
        opacity: .08;
      }

      .st7 {
        font-size: 15px;
      }

      .st8, .st34 {
        fill: #1a2438;
      }

      .st28 {
        fill: #f5f5f5;
      }

      .st35 {
        fill: #6c63ff;
      }

      .st11 {
        font-size: 13px;
      }
    </style>
    <linearGradient id="linear-gradient" x1="653.48" y1="257.48" x2="1013.48" y2="257.48" gradientUnits="userSpaceOnUse">
      <stop offset="0" stop-color="#1a2438"/>
      <stop offset="1" stop-color="#000"/>
    </linearGradient>
    <linearGradient id="linear-gradient1" x1="1375.98" y1="360.9" x2="1375.98" y2="335.9" gradientUnits="userSpaceOnUse">
      <stop offset="0" stop-color="#3d4b7d"/>
      <stop offset="1" stop-color="#000"/>
    </linearGradient>
    <linearGradient id="linear-gradient2" x1="1405.98" y1="360.9" x2="1405.98" y2="325.9" gradientUnits="userSpaceOnUse">
      <stop offset="0" stop-color="#3d4b7d"/>
      <stop offset="1" stop-color="#000"/>
    </linearGradient>
    <linearGradient id="linear-gradient3" x1="1435.98" y1="360.9" x2="1435.98" y2="310.9" gradientUnits="userSpaceOnUse">
      <stop offset="0" stop-color="#3d4b7d"/>
      <stop offset="1" stop-color="#000"/>
    </linearGradient>
    <linearGradient id="linear-gradient4" x1="1465.98" y1="360.9" x2="1465.98" y2="295.9" gradientUnits="userSpaceOnUse">
      <stop offset="0" stop-color="#3d4b7d"/>
      <stop offset="1" stop-color="#000"/>
    </linearGradient>
  </defs>
  <rect class="st32" x="-.85" y="-.1" width="1601.7" height="600"/>
  <g class="st33">
    <line class="st18" x1="400" y1="39.67" x2="400" y2="639.67"/>
    <line class="st19" x1="800" y1="39.67" x2="800" y2="639.67"/>
    <line class="st18" x1="1200" y1="39.67" x2="1200" y2="639.67"/>
    <line class="st19" y1="239.67" x2="1600" y2="239.67"/>
    <line class="st18" y1="439.67" x2="1600" y2="439.67"/>
  </g>
  <circle class="st35" cx="950" cy="339.67" r="5"/>
  <g id="step1">
    <rect class="st34" x="52.48" y="108.9" width="280" height="54.77" rx="15" ry="15"/>
    <circle class="st32" cx="82.48" cy="136.9" r="18"/>
    <g class="st4">
      <text class="st8" transform="translate(77.48 142.9)"><tspan x="0" y="0">1</tspan></text>
    </g>
    <g class="st4">
      <text class="st5" transform="translate(127.6 143.67)"><tspan x="0" y="0">Your training Data</tspan></text>
    </g>
    <rect class="st15" x="72.48" y="205.9" width="280" height="200" rx="10" ry="10"/>
    <rect class="st28" x="87.48" y="215.9" width="250" height="40" rx="5" ry="5"/>
    <g class="st4">
      <text class="st0" transform="translate(102.48 240.9)"><tspan x="0" y="0">yourwebsite.com</tspan></text>
    </g>
    <rect class="st27" x="102.48" y="270.9" width="75.94" height="35" rx="8" ry="8"/>
    <g class="st4">
      <text class="st11" transform="translate(126.57 291.87)"><tspan x="0" y="0">URL</tspan></text>
    </g>
    <rect class="st27" x="102.48" y="315.9" width="75.94" height="35" rx="8" ry="8"/>
    <g class="st4">
      <text class="st11" transform="translate(126.28 336.87)"><tspan x="0" y="0">PDF</tspan></text>
    </g>
    <rect class="st27" x="102.48" y="360.9" width="74.64" height="30" rx="6" ry="6"/>
    <g class="st4">
      <text class="st1" transform="translate(122.82 380.9)"><tspan x="0" y="0">JSON</tspan></text>
    </g>
    <g class="st4">
      <text class="st1" transform="translate(217.48 380.9)"><tspan x="0" y="0">PUT /items</tspan></text>
    </g>
  </g>
  <path class="st20" d="M135.24,410.61l-.48,67.35"/>
  <circle class="st31" cx="342.48" cy="476.9" r="5"/>
  <g id="step2">
    <rect class="st34" x="350.17" y="449.67" width="262.81" height="54.88" rx="15" ry="15"/>
    <circle class="st32" cx="385.17" cy="477.9" r="18"/>
    <g class="st4">
      <text class="st8" transform="translate(380.17 482.9)"><tspan x="0" y="0">2</tspan></text>
    </g>
    <g class="st4">
      <text class="st5" transform="translate(424.57 482.9)"><tspan x="0" y="0">Crawl your data</tspan></text>
    </g>
  </g>
  <g id="ai-assistant">
    <rect class="st25" x="653.48" y="90.9" width="360" height="333.17" rx="15" ry="15"/>
    <circle class="st16" cx="683.48" cy="120.9" r="20"/>
    <g class="st4">
      <text class="st2" transform="translate(713.48 127.9)"><tspan x="0" y="0">AI Assistant</tspan></text>
    </g>
    <circle class="st13" cx="988.48" cy="120.9" r="12"/>
    <g class="st4">
      <text class="st2" transform="translate(983.48 125.9)"><tspan x="0" y="0">X</tspan></text>
    </g>
    <rect class="st3" x="673.48" y="160.9" width="222.26" height="60" rx="10" ry="10"/>
    <g class="st4">
      <text class="st11" transform="translate(688.48 185.9)"><tspan x="0" y="0">Hi, I’m Zaakiy, the AI assistant for...</tspan></text>
    </g>
    <g class="st4">
      <text class="st11" transform="translate(688.48 203.9)"><tspan x="0" y="0">how can I help you today?</tspan></text>
    </g>
    <rect class="st15" x="612.09" y="317.38" width="310" height="87.05" rx="10" ry="10"/>
    <rect class="st26" x="622.09" y="327.38" width="50" height="50" rx="5" ry="5"/>
    <g class="st4">
      <text class="st7" transform="translate(689.34 340.82)"><tspan x="0" y="0">AI Data Harmonizer</tspan></text>
    </g>
    <g class="st4">
      <text class="st10" transform="translate(689.53 362.88)"><tspan x="0" y="0">Certainly! Data extracted.</tspan></text>
    </g>
    <g class="st4">
      <text class="st10" transform="translate(690.13 377.38)"><tspan x="0" y="0">Found 20 records</tspan></text>
    </g>
    <rect class="st12" x="767.09" y="245.62" width="290" height="40" rx="8" ry="8"/>
    <g class="st4">
      <text class="st1" transform="translate(783.73 268.9)"><tspan x="0" y="0">Hi, I would like to the best selling ...</tspan></text>
    </g>
  </g>
  <path class="st20" d="M525.06,445.54l.84-91.39"/>
  <path class="st20" d="M1033.76,363.4h22.72-22.72Z"/>
  <circle class="st31" cx="1030.76" cy="363.4" r="5"/>
  <circle class="st31" cx="1078.58" cy="140.9" r="5"/>
  <path class="st20" d="M1053.48,140.9v223.55"/>
  <g id="step4">
    <rect class="st34" x="1093.48" y="108.9" width="247.02" height="54.77" rx="15" ry="15"/>
    <circle class="st32" cx="1130.48" cy="136.9" r="18"/>
    <g class="st4">
      <text class="st8" transform="translate(1123.48 142.9) scale(1.51 1)"><tspan x="0" y="0">3</tspan></text>
    </g>
    <g class="st4">
      <text class="st5" transform="translate(1171.48 144.9)"><tspan x="0" y="0">Send Insights</tspan></text>
    </g>
  </g>
  <g id="dashboard">
    <rect class="st14" x="1113.48" y="210.9" width="400" height="213.17" rx="10" ry="10"/>
    <circle class="st26" cx="1143.48" cy="240.9" r="18"/>
    <g class="st4">
      <text class="st9" transform="translate(1173.48 247.9)"><tspan x="0" y="0">Reporting Dashboard</tspan></text>
    </g>
    <g class="st4">
      <text class="st6" transform="translate(1133.48 285.9)"><tspan x="0" y="0">Weekly User Growth</tspan></text>
    </g>
    <polyline class="st17" points="1143.48 350.9 1163.48 340.9 1183.48 335.9 1203.48 330.9 1223.48 345.9 1243.48 325.9 1263.48 315.9 1283.48 305.9"/>
    <circle class="st29" cx="1283.48" cy="305.9" r="4"/>
    <rect class="st23" x="1363.48" y="335.9" width="25" height="25"/>
    <rect class="st24" x="1393.48" y="325.9" width="25" height="35"/>
    <rect class="st22" x="1423.48" y="310.9" width="25" height="50"/>
    <rect class="st21" x="1453.48" y="295.9" width="25" height="65"/>
  </g>
  <path class="st31" d="M1108.48,300.9"/>
  <path class="st31" d="M1098.48,300.9"/>
  <path class="st20" d="M140.03,476.9h197.45"/>
  <circle class="st31" cx="612.98" cy="353.81" r="5"/>
  <path class="st20" d="M525.48,354.48l79.93-.67"/>
  <g>
    <path class="st30" d="M674.54,121.25c-1.24-1.23-1.33-3.12-.61-4.6,1.5-2.96,5.5-4.83,9.1-5.11,5.01-.4,9.96,2.62,10.23,7.2.21,2.66-1.64,5.18-4.19,6.52-2.29,1.24-7.09,2.66-8.48-.26-.82-2.05,1.68-3.33,3.7-3.38.79-.02,1.58.11,2.31.37,2.01.71,3.61,2.28,4.13,4.13.58,2.19-1.04,4.38-3.28,5.24-1.74.74-4.86,1.13-5.57-.95-.4-1.56,1.12-2.84,2.82-2.86,1.47-.09,2.85.62,4,1.25.77.42,1.53.82,2.36,1.06,1.65.47,3.63.02,4.88-1.14-1.13,1.29-3.17,1.9-5,1.52-1.78-.36-3.24-1.51-4.96-1.86-1.14-.23-2.5-.05-2.99.93-.48,1.02.4,1.67,1.56,1.62.79-.02,1.63-.26,2.34-.57,3.42-1.6,3.22-4.79.19-6.63-.97-.57-2.13-.89-3.27-.68-.83.14-2.06.66-1.71,1.46.64,1.2,2.58.75,3.84.46,4.14-1.05,7.1-4.52,5.32-8.27-1.26-2.78-4.82-4.38-8.17-4.24-3.31.12-7.15,1.7-8.75,4.34-.8,1.36-.85,3.14.2,4.43h0v.02Z"/>
    <path class="st30" d="M687.2,116.55c-1.2.17-2.5.2-3.42.92,0,0-.02.02-.03.02.14-.12.05-.36-.16-.38,1.03-.08,2.49.46,2.97,1.48-.89-.59-1.86-.86-2.94-.78-.48.06-.8-.46-.49-.78,1.03-.94,2.78-.91,4.07-.48h0Z"/>
    <circle class="st30" cx="679.64" cy="117.82" r=".86"/>
  </g>
  <path class="st20" d="M1051.98,140.9h23.21-23.21Z"/>
</svg>