<?xml version="1.0" encoding="UTF-8"?>
<svg id="Layer_1" data-name="Layer 1" xmlns="http://www.w3.org/2000/svg" viewBox="0 0 1799.46 722.28">
  <defs>
    <style>
      .cls-1 {
        fill: #0a0a60;
      }
    </style>
  </defs>
  <g>
    <path class="cls-1" d="M32.8,343.99C-5.39,300.39-8.27,233.92,14.03,181.64,60.44,77.13,183.85,11.13,294.89,1.23c154.75-13.99,307.36,92.56,315.72,254.36,6.51,93.9-50.6,182.92-129.35,230.19-70.83,43.67-218.71,93.8-261.61-9.29-25.26-72.33,51.73-117.68,114.27-119.52,24.35-.68,48.87,4.05,71.4,13.17,61.96,25.17,111.52,80.58,127.36,145.9,17.91,77.23-32.08,154.76-101.36,185.26-53.65,26.19-149.94,39.94-171.8-33.52-12.25-54.95,34.51-100.15,86.99-100.98,45.33-3.01,87.86,21.79,123.57,44.18,23.78,14.74,47.23,29.12,72.86,37.34,50.9,16.43,112.04.82,150.62-40.1-35.01,45.52-97.96,67.27-154.32,53.54-54.91-12.79-99.85-53.34-153.23-65.56-35.09-8.07-77.26-1.81-92.17,32.78-14.97,36.06,12.35,59.01,48.06,57.08,24.27-.56,50.22-9.01,72.14-20.01,105.56-56.62,99.4-169.24,5.83-234.06-30.07-20.07-65.87-31.47-100.86-24.09-25.64,4.81-63.73,23.42-52.68,51.43,19.85,42.44,79.71,26.45,118.39,16.39,127.83-37.12,219.1-159.59,164.22-292.14-38.78-98.2-148.79-154.85-252.1-149.6-102.19,4.26-220.64,60.22-270.23,153.47C1.89,235.65.27,298.38,32.8,343.99h0Z"/>
    <path class="cls-1" d="M423.55,178.09c-36.93,6.16-77.12,7.14-105.59,32.44-.16.13-.68.59-.84.72,4.22-4.15,1.42-12.82-5-13.41,31.75-2.74,76.98,16.1,91.55,52.36-27.6-20.95-57.5-30.46-90.68-27.64-14.72,2.07-24.62-16.24-15.11-27.38,31.71-33.2,85.66-32.17,125.66-17.09h0Z"/>
    <ellipse class="cls-1" cx="190.25" cy="223.03" rx="26.54" ry="30.38"/>
  </g>
  <g>
    <path class="cls-1" d="M833.16,233.66h-95.86c-8.42,0-15.25-6.83-15.25-15.25v-.35c0-8.42,6.83-15.25,15.25-15.25h151.04c8.42,0,15.25,6.83,15.25,15.25v10.47c0,3.33-1.09,6.57-3.1,9.22l-120.15,158.3c-7.62,10.04-.46,24.47,12.15,24.47h95.86c8.42,0,15.25,6.83,15.25,15.25h0c0,8.42-6.83,15.25-15.25,15.25h-151.04c-8.42,0-15.25-6.83-15.25-15.25v-10.12c0-3.33,1.09-6.57,3.1-9.22l120.15-158.3c7.62-10.04.46-24.47-12.15-24.47Z"/>
    <path class="cls-1" d="M1012.08,270.18c56.02,0,93.25,36.87,93.25,92.19v73.4c0,8.42-6.83,15.25-15.25,15.25h-3.19c-8.42,0-15.25-6.83-15.25-15.25v-19.85l-3.55.35v3.19c0,14.18-21.27,35.1-63.12,35.1-51.06,0-86.16-35.81-86.16-90.06,0-57.44,36.87-94.32,93.25-94.32ZM1011.01,423c43.97,0,60.28-24.82,60.28-60.63s-22.69-60.63-59.21-60.63-59.57,24.47-59.57,60.63,21.98,60.63,58.5,60.63Z"/>
    <path class="cls-1" d="M1227.99,270.18c56.02,0,93.25,36.87,93.25,92.19v73.4c0,8.42-6.83,15.25-15.25,15.25h-3.19c-8.42,0-15.25-6.83-15.25-15.25v-19.85l-3.54.35v3.19c0,14.18-21.28,35.1-63.12,35.1-51.06,0-86.16-35.81-86.16-90.06,0-57.44,36.87-94.32,93.25-94.32ZM1226.93,423c43.97,0,60.27-24.82,60.27-60.63s-22.69-60.63-59.21-60.63-59.57,24.47-59.57,60.63,21.99,60.63,58.5,60.63Z"/>
    <path class="cls-1" d="M1365.91,185.09h3.19c8.42,0,15.25,6.83,15.25,15.25v154.28c0,14.79,18.94,20.92,27.6,8.93l60.37-83.5c2.87-3.97,7.46-6.31,12.36-6.31h.93c12.52,0,19.71,14.26,12.25,24.33l-33.66,45.42c-4.2,5.67-3.96,13.49.58,18.89l53.45,63.58c8.34,9.92,1.29,25.06-11.67,25.06h-.98c-4.48,0-8.74-1.97-11.63-5.39l-43.96-51.89c-6.36-7.5-18.05-7.12-23.9.79l-37.17,50.3c-2.87,3.89-7.43,6.19-12.26,6.19h-10.74c-8.42,0-15.25-6.83-15.25-15.25v-235.43c0-8.42,6.83-15.25,15.25-15.25Z"/>
    <path class="cls-1" d="M1585.37,199.27c12.41,0,20.56,7.8,20.56,19.51s-8.15,19.5-20.56,19.5-20.21-7.8-20.21-19.5,8.15-19.51,20.21-19.51ZM1583.95,273.73h3.19c8.42,0,15.25,6.83,15.25,15.25v146.79c0,8.42-6.83,15.25-15.25,15.25h-3.19c-8.42,0-15.25-6.83-15.25-15.25v-146.79c0-8.42,6.83-15.25,15.25-15.25Z"/>
    <path class="cls-1" d="M1781.06,467.74,1668.71,373.37v-84.4c0-8.42-6.83-15.25-15.25-15.25h-3.2c-8.42,0-15.25,6.83-15.25,15.25v81.57c0,57.09,24.9,83.68,79.97,83.99v-31.75s0,0,0,0c-32.44-1.82-46.27-16.66-46.27-49.42Z"/>
    <path class="cls-1" d="M1647.03,467.74,1713.1,422.78v31.75c55.07-.31,79.97-26.91,79.97-83.99v-81.57c0-8.42-6.83-15.25-15.25-15.25h-3.2c-8.42,0-15.25,6.83-15.25,15.25v84.4c0,32.75-13.83,47.59-46.27,49.42,0,0,0,0,0,0Z"/>
  </g>
  <path class="cls-1" d="M1787.42,467.74c7.68,0,13.51,7.17,11.71,14.64-8.62,35.87-37.37,55.09-83.1,55.09s-73.65-17.51-78.99-53.45c-1.07-7.22,4.6-13.72,11.89-13.72h7.26c5.76,0,10.78,4.11,11.74,9.79,3.53,20.72,19.23,30.19,48.39,30.19s47.04-10.92,52.27-32.88c1.32-5.56,6.02-9.65,11.74-9.65h7.09Z"/>
</svg>